# xmcd CD database file
#
# Track frame offsets:
#	150
#	13457
#	27753
#	50818
#	63383
#	76972
#	90346
#	103936
#	117677
#	139710
#	153157
#	174105
#	195392
#	210029
#
# Disc length: 2992 seconds
#
# Revision: 2
# Processed by: cddbd v1.5.1PL0 Copyright (c) Steve Scherf et al.
# Submitted via: CDex 1.51
#
DISCID=b00bae0e
DTITLE=Dexter Gordon - Dexter Gordon
DYEAR=2004
DGENRE=Jazz
TTITLE0=Dexter digs in
TTITLE1=Dexter's cuttin' out
TTITLE2=Roseta
TTITLE3=Dextrose
TTITLE4=If I had you
TTITLE5=Blow Mr. Dexter
TTITLE6=Long Tall Dexter
TTITLE7=Index
TTITLE8=Sweet Lorraine
TTITLE9=Dextrivity
TTITLE10=I've found a new baby
TTITLE11=I blowed and gone
TTITLE12=I can't escape from you
TTITLE13=Dexter rides again
EXTD=YEAR: 2004
EXTT0=
EXTT1=
EXTT2=
EXTT3=
EXTT4=
EXTT5=
EXTT6=
EXTT7=
EXTT8=
EXTT9=
EXTT10=
EXTT11=
EXTT12=
EXTT13=
PLAYORDER=
